<svg xmlns="http://www.w3.org/2000/svg" xmlns:xlink="http://www.w3.org/1999/xlink" id="Capa_1" x="0px" y="0px" viewBox="0 0 183.1 64.8" style="enable-background:new 0 0 183.1 64.8;" xml:space="preserve">
<style type="text/css">
	.st0{fill-rule:evenodd;clip-rule:evenodd;fill:#F8F9FD;}
	.st1{fill:#F8F9FD;}
</style>
<g id="DESKTOP">
	<g id="_x21_-design-to-developers-_x28_Desktop_x29_" transform="translate(-372.000000, -788.000000)">
		<g id="splash-screen" transform="translate(-352.000000, 72.000000)">
			<path id="googlePlayBadge" class="st0" d="M693.2,722.5c4.3,0,7.8,3.5,7.8,7.8l0,0V767c0,4.3-3.5,7.8-7.8,7.8l0,0H538.3     c-4.3,0-7.8-3.5-7.8-7.8l0,0v-36.6c0-4.3,3.5-7.8,7.8-7.8l0,0H693.2z M693.2,723.7H538.3c-3.6,0-6.6,2.9-6.6,6.6l0,0V767     c0,3.6,3,6.6,6.6,6.6l0,0h154.8c3.6,0,6.6-2.9,6.6-6.6l0,0v-36.6C699.8,726.7,696.8,723.7,693.2,723.7L693.2,723.7z M627.3,750.8     c1.2,0,2.1,0.5,2.6,1l0.1,0.1h0.1v-0.9h2.2v9.4c0,3.9-2.3,5.5-5,5.5c-2.4,0-4-1.6-4.6-2.9l-0.1-0.2l2-0.8     c0.4,0.9,1.2,1.9,2.6,1.9c1.7,0,2.7-1,2.8-2.8l0-0.2v-0.8h-0.1c-0.5,0.6-1.5,1.2-2.8,1.2c-2.6,0-5-2.3-5-5.2     C622.3,753.1,624.7,750.8,627.3,750.8z M679.3,751.1l2.7,6.7h0.1l2.6-6.7h2.6l-6.3,14.6h-2.4l2.3-5.2l-4.1-9.4H679.3z      M560.2,749.3l4.8,4.8l-17.7,10c-0.7,0.4-1.4,0.5-1.9,0.3l-0.2-0.1L560.2,749.3z M544.6,733.5l15,15.2l-15,15.2     c-0.2-0.3-0.4-0.7-0.4-1.2l0-0.3V735C544.2,734.4,544.3,733.9,544.6,733.5z M642.3,750.8c2.6,0,4,2,4.4,3.2l0.1,0.1l0.2,0.6     l-7,2.9c0.5,1.1,1.4,1.6,2.5,1.6c1.1,0,1.9-0.5,2.5-1.3l0.1-0.2l1.8,1.2c-0.6,0.9-2,2.3-4.4,2.3c-3,0-5.2-2.3-5.2-5.3     C637.4,753,639.6,750.8,642.3,750.8z M590.9,745c2.4,0,4.1,0.9,5.4,2l0.2,0.2l-1.6,1.6c-1-0.9-2.2-1.6-4-1.6     c-3.3,0-5.9,2.6-5.9,5.9c0,3.3,2.6,5.9,5.9,5.9c2.1,0,3.3-0.9,4.1-1.6c0.6-0.6,1-1.4,1.2-2.5l0-0.3h-5.3v-2.2h7.5     c0.1,0.4,0.1,0.9,0.1,1.4c0,1.7-0.5,3.7-1.9,5.2c-1.4,1.5-3.3,2.3-5.7,2.3c-4.5,0-8.3-3.7-8.3-8.2     C582.6,748.7,586.4,745,590.9,745z M604.5,750.8c2.9,0,5.3,2.2,5.3,5.3c0,3-2.4,5.3-5.3,5.3c-2.9,0-5.3-2.2-5.3-5.3     C599.3,753,601.6,750.8,604.5,750.8z M616,750.8c2.9,0,5.3,2.2,5.3,5.3c0,3-2.4,5.3-5.3,5.3c-2.9,0-5.3-2.2-5.3-5.3     C610.8,753,613.1,750.8,616,750.8z M672,750.8c2.6,0,4.6,1.4,4.7,4l0,0.3v5.9h-2.2v-1.2h-0.1c-0.5,0.8-1.4,1.5-2.9,1.5     c-2,0-3.8-1.3-3.8-3.4c0-2.3,2.2-3.5,4.5-3.5c1,0,1.8,0.3,2.3,0.5l0.1,0.1v-0.2c0-1.3-1.2-2-2.4-2c-0.8,0-1.6,0.2-2,1l-0.1,0.2     l-2-0.9C668.6,751.5,670.3,750.8,672,750.8z M666.3,745.6V761H664v-15.4H666.3z M636.3,745.6V761H634v-15.4H636.3z M657.6,745.6     c2.6,0,5.1,1.8,5.1,4.8c0,2.9-2.4,4.7-4.8,4.8l-0.2,0h-3.2v5.8h-2.3v-15.4H657.6z M604.5,752.9c-1.6,0-3,1.3-3,3.2     c0,1.9,1.4,3.2,3,3.2c1.6,0,3-1.3,3-3.2C607.5,754.2,606.1,752.9,604.5,752.9z M627.5,752.9c-1.6,0-2.9,1.4-2.9,3.2     c0,1.8,1.3,3.2,2.9,3.2c1.6,0,2.8-1.3,2.8-3.2C630.3,754.3,629.1,752.9,627.5,752.9z M616,752.9c-1.6,0-3,1.3-3,3.2     c0,1.9,1.4,3.2,3,3.2s3-1.3,3-3.2C619,754.2,617.6,752.9,616,752.9z M672.3,756.3c-1.1,0-2.4,0.5-2.4,1.6c0,0.9,1.1,1.3,1.8,1.3     c1.3,0,2.6-1,2.7-2.4C673.8,756.5,673.3,756.3,672.3,756.3z M642.4,752.9c-1.1,0-2.7,1-2.7,2.8l0,0.2l4.7-1.9     C644.1,753.3,643.3,752.9,642.4,752.9z M565.8,743.7l5.6,3.2c1.7,0.9,1.7,2.5,0.2,3.5l-0.2,0.1l-5.6,3.2l-5-5L565.8,743.7z      M657.7,747.7h-3.3v5.3h3.3c1.7,0,2.7-1.4,2.7-2.6C660.4,749.2,659.4,747.7,657.7,747.7z M547.1,733.1l0.2,0.1l17.7,10l-4.8,4.8     l-15-15.1C545.8,732.7,546.4,732.8,547.1,733.1z M586.8,732.5c0.5,0,1,0.1,1.5,0.3c0.5,0.2,0.9,0.5,1.2,0.8l-0.7,0.7     c-0.5-0.6-1.2-0.9-2-0.9c-0.8,0-1.5,0.3-2,0.8c-0.6,0.5-0.9,1.3-0.9,2.1c0,0.9,0.3,1.6,0.9,2.1c0.6,0.5,1.2,0.8,2,0.8     c0.8,0,1.5-0.3,2.1-0.8c0.4-0.4,0.6-0.9,0.6-1.5h-2.7v-0.9h3.6c0,0.2,0.1,0.4,0.1,0.6c0,1-0.3,1.9-0.9,2.5     c-0.7,0.7-1.6,1.1-2.7,1.1c-1.1,0-2-0.4-2.7-1.1c-0.7-0.7-1.1-1.7-1.1-2.8c0-1.1,0.4-2,1.1-2.8     C584.8,732.8,585.7,732.5,586.8,732.5z M620.1,732.5c1.1,0,2,0.4,2.7,1.1c0.7,0.8,1.1,1.7,1.1,2.7c0,1.1-0.4,2-1.1,2.7     c-0.7,0.7-1.6,1.1-2.7,1.1c-1.1,0-2-0.4-2.7-1.1c-0.7-0.7-1.1-1.7-1.1-2.7c0-1.1,0.4-2,1.1-2.7     C618.1,732.8,619,732.5,620.1,732.5z M626.4,732.6l3.6,5.8h0l0-1.4v-4.3h1v7.4h-1l-3.8-6h0l0,1.4v4.6h-1v-7.4H626.4z      M613.2,732.6v0.9h-2.1v6.5h-1v-6.5h-2.1v-0.9H613.2z M606.9,732.6v7.4h-1v-7.4H606.9z M602.2,732.6v0.9h-2.1v6.5h-1v-6.5h-2.1     v-0.9H602.2z M596.1,732.6v0.9h-3.4v2.3h3v0.9h-3v2.3h3.4v0.9h-4.3v-7.4H596.1z M620.1,733.4c-0.8,0-1.5,0.3-2,0.8     c-0.5,0.6-0.8,1.3-0.8,2.1c0,0.9,0.3,1.6,0.8,2.1c0.5,0.6,1.2,0.8,2,0.8c0.8,0,1.5-0.3,2-0.8c0.5-0.6,0.8-1.3,0.8-2.1     c0-0.9-0.3-1.6-0.8-2.1C621.6,733.6,620.9,733.4,620.1,733.4z"></path>
		</g>
	</g>
</g>
<g id="DESKTOP_1_">
	<g id="_x21_-design-to-developers-_x28_Desktop_x29__1_" transform="translate(-531.000000, -788.000000)">
		<g id="splash-screen_1_" transform="translate(-352.000000, 72.000000)">
			<path id="appStoreBadge" class="st1" d="M1038.1,722.4c6.1,0,11.1,5,11.1,11.1l0,0v29.6c0,6.1-5,11.1-11.1,11.1l0,0H909.7     c-6.1,0-11.1-5-11.1-11.1l0,0v-29.6c0-6.1,5-11.1,11.1-11.1l0,0H1038.1z M1038.1,723.7H909.7c-5.5,0-9.9,4.4-9.9,9.9l0,0v29.6     c0,5.5,4.4,9.9,9.9,9.9l0,0h128.4c5.5,0,9.9-4.4,9.9-9.9l0,0v-29.6C1048,728.1,1043.6,723.7,1038.1,723.7L1038.1,723.7z      M963.5,749.6c2.9,0,4.8,2.3,4.8,5.8c0,3.5-1.9,5.8-4.8,5.8c-1.5,0.1-2.9-0.7-3.6-2h-0.1v5.6h-2.3v-15.1h2.3v1.9h0     C960.6,750.3,962,749.5,963.5,749.6z M975.7,749.6c2.9,0,4.8,2.3,4.8,5.8c0,3.5-1.9,5.8-4.8,5.8c-1.5,0.1-2.9-0.7-3.6-2h-0.1v5.6     h-2.3v-15.1h2.3v1.9h0C972.8,750.3,974.2,749.5,975.7,749.6z M950.6,745.3l5.5,15.7h-2.5l-1.4-4.2h-5.8L945,761h-2.5l5.5-15.7     H950.6z M1012.1,749.1c3.3,0,5.4,2.3,5.4,6c0,3.7-2.1,6-5.4,6c-3.3,0-5.4-2.3-5.4-6C1006.7,751.4,1008.8,749.1,1012.1,749.1z      M1024.1,749.6c0.3,0,0.5,0,0.8,0.1v2.2c-0.3-0.1-0.7-0.2-1-0.1c-1.3-0.1-2.3,1-2.4,2.2c0,0.1,0,0.2,0,0.4v6.7h-2.3v-11.3h2.1     v1.9h0.1C1021.8,750.4,1022.9,749.5,1024.1,749.6z M992.5,744.8c3.2,0,5.4,1.9,5.5,4.6h-2.3c-0.1-1.6-1.4-2.5-3.2-2.5     c-1.8,0-3.1,1-3.1,2.3c0,1.1,0.8,1.8,2.8,2.3l1.7,0.4c3.1,0.8,4.4,2.1,4.4,4.3c0,2.9-2.3,4.8-5.9,4.8c-3.4,0-5.7-1.8-5.8-4.6     l2.3,0c0.2,1.6,1.6,2.6,3.6,2.6c1.9,0,3.3-1,3.3-2.4c0-1.2-0.8-1.9-2.8-2.4l-2-0.5c-2.8-0.7-4.1-2-4.1-4.2     C987,746.7,989.3,744.8,992.5,744.8z M1030.6,749.1c3.1,0,5.1,2.2,5.1,5.7v0.8h-8v0.1c-0.1,1.7,1,3.1,2.7,3.3c0.1,0,0.2,0,0.4,0     c1.1,0.1,2.2-0.6,2.6-1.6h2.2c-0.3,2.1-2.3,3.6-4.9,3.6c-3.3,0-5.3-2.3-5.3-5.9C1025.4,751.5,1027.4,749.1,1030.6,749.1z      M928.2,740.1l0.3,0c2,0.1,3.8,1.1,5,2.7c-1.8,1.1-2.9,3.1-2.9,5.3c0,2.4,1.4,4.6,3.6,5.6c-0.4,1.4-1.1,2.7-1.9,3.9     c-1.1,1.7-2.3,3.4-4.1,3.4c-1.8,0-2.4-1.1-4.5-1.1c-2.1,0-2.7,1-4.4,1.1c-1.8,0.1-3.1-1.8-4.3-3.5c-2.3-3.4-4.1-9.7-1.7-13.9     c1.1-2.1,3.2-3.4,5.6-3.5c1.8,0,3.4,1.2,4.5,1.2c0.9,0,2.6-1.2,4.5-1.3L928.2,740.1z M1003.1,746.7v2.7h2.1v1.9h-2.1v6.3     c0,1,0.4,1.4,1.4,1.4c0.3,0,0.5,0,0.8-0.1v1.9c-0.4,0.1-0.9,0.1-1.3,0.1c-2.3,0-3.2-0.9-3.2-3.1v-6.6h-1.6v-1.9h1.6v-2.7H1003.1z      M962.9,751.6c-1.8,0-3,1.5-3,3.8c0,2.3,1.2,3.8,3,3.8c1.8,0,3-1.5,3-3.8C965.9,753.1,964.7,751.6,962.9,751.6z M975,751.6     c-1.8,0-3,1.5-3,3.8c0,2.3,1.2,3.8,3,3.8c1.8,0,3-1.5,3-3.8C978.1,753.1,976.9,751.6,975,751.6z M1012.1,751.1c-1.9,0-3,1.5-3,4     c0,2.5,1.1,4,3,4c1.9,0,3-1.5,3-4C1015.1,752.6,1013.9,751.1,1012.1,751.1z M949.4,747.9L949.4,747.9l-2.3,6.9h4.6L949.4,747.9z      M1030.6,751c-1.6,0-2.9,1.3-2.9,2.9v0h5.6c0.1-1.5-1.1-2.9-2.6-2.9C1030.7,751,1030.7,751,1030.6,751z M950.1,736.5     c0,0.2,0,0.4,0,0.7c0,2.4-1.3,3.8-3.4,3.8H944v-7.6h2.6C948.4,733.3,949.9,734.7,950.1,736.5z M1009.5,737c0,0.1,0,0.3,0,0.4v3.6     h-1.1v-3.3c0-0.9-0.4-1.3-1.2-1.3c-0.7,0-1.3,0.5-1.3,1.2c0,0.1,0,0.1,0,0.2v3.3h-1.1v-5.6h1v0.9h0.1c0.3-0.7,0.9-1.1,1.6-1     C1008.5,735.2,1009.4,736,1009.5,737z M973.9,732.9v8.1H973v-8.1H973.9z M1027.5,735.3c1.6,0,2.5,1,2.5,2.8v0.4h-4v0.1     c-0.1,0.8,0.5,1.5,1.4,1.6c0,0,0.1,0,0.1,0c0.5,0.1,1.1-0.2,1.3-0.7h1.1c-0.3,1-1.3,1.7-2.4,1.6c-1.4,0-2.6-1.1-2.6-2.4     c0-0.1,0-0.3,0-0.4c-0.2-1.4,0.8-2.7,2.2-2.8C1027.3,735.3,1027.4,735.3,1027.5,735.3z M1019.4,732.9v3.2h0.1     c0.3-0.7,1-1.1,1.7-1c1-0.1,1.8,0.8,1.9,1.8c0,0.1,0,0.2,0,0.4v3.8h-1.1v-3.5c0-0.9-0.4-1.4-1.2-1.4c-0.7-0.1-1.3,0.5-1.4,1.2     c0,0.1,0,0.2,0,0.2v3.4h-1.1v-8.1H1019.4z M984.4,735.3c1.4,0,2.2,0.7,2.2,1.9v3.8h-1.1v-0.8h-0.1c-0.4,0.6-1,0.9-1.7,0.9     c-0.9,0.1-1.8-0.6-1.8-1.5c0-0.1,0-0.1,0-0.2c0-1,0.7-1.6,2.1-1.6l1.5-0.1v-0.5c0-0.6-0.4-0.9-1.1-0.9c-0.6,0-1,0.2-1.2,0.6h-1.1     C982.2,735.9,983.1,735.3,984.4,735.3z M958.7,735.3l1,4.4h0.1l1.2-4.4h1.1l1.2,4.4h0.1l1-4.4h1.1l-1.6,5.7h-1.2l-1.2-4.2h-0.1     l-1.2,4.2h-1.2l-1.6-5.7H958.7z M971.1,737c0,0.1,0,0.3,0,0.4v3.6H970v-3.3c0-0.9-0.4-1.3-1.2-1.3c-0.7,0-1.3,0.5-1.3,1.2     c0,0.1,0,0.1,0,0.2v3.3h-1.1v-5.6h1v0.9h0.1c0.3-0.7,0.9-1.1,1.6-1C970.2,735.2,971,736,971.1,737z M1015.7,733.9v1.4h1.2v0.9     h-1.2v2.9c0,0.6,0.2,0.9,0.8,0.9c0.1,0,0.3,0,0.4,0v0.9c-0.2,0-0.4,0.1-0.6,0.1c-1.3,0-1.8-0.4-1.8-1.5v-3.2h-0.9v-0.9h0.9v-1.4     H1015.7z M993.6,732.9v8h-1V740h-0.1c-0.4,0.6-1,1-1.7,1c-1.4,0-2.3-1.2-2.3-3c0-1.8,0.9-3,2.3-3c0.7,0,1.4,0.4,1.7,1h0.1v-3.2     H993.6z M1003.4,737.7c0,0.2,0,0.3,0,0.5c0.1,1.4-0.9,2.7-2.3,2.8c-1.4,0.1-2.7-0.9-2.8-2.3c0-0.2,0-0.3,0-0.5     c-0.1-1.4,0.9-2.7,2.3-2.8C1002,735.2,1003.3,736.2,1003.4,737.7z M956.6,737.7c0,0.2,0,0.3,0,0.5c0.1,1.4-0.9,2.7-2.3,2.8     c-1.4,0.1-2.7-0.9-2.8-2.3c0-0.2,0-0.3,0-0.5c-0.1-1.4,0.9-2.7,2.3-2.8C955.2,735.2,956.5,736.2,956.6,737.7z M980.9,737.7     c0,0.2,0,0.3,0,0.5c0.1,1.4-0.9,2.7-2.3,2.8c-1.4,0.1-2.7-0.9-2.8-2.3c0-0.2,0-0.3,0-0.5c-0.1-1.4,0.9-2.7,2.3-2.8     C979.5,735.2,980.8,736.2,980.9,737.7z M985.5,738.4l-1.4,0.1c-0.8,0.1-1.1,0.3-1.1,0.8c0,0.5,0.4,0.8,1,0.8     c0.7,0.1,1.4-0.4,1.4-1.2c0,0,0,0,0,0V738.4z M978.4,736.3c-0.9,0-1.5,0.7-1.5,1.9c0,1.2,0.5,1.9,1.5,1.9c0.9,0,1.5-0.7,1.5-1.9     C979.8,737,979.3,736.3,978.4,736.3z M1000.8,736.3c-0.9,0-1.5,0.7-1.5,1.9c0,1.2,0.5,1.9,1.5,1.9c0.9,0,1.5-0.7,1.5-1.9     C1002.3,737,1001.8,736.3,1000.8,736.3z M954,736.3c-0.9,0-1.5,0.7-1.5,1.9c0,1.2,0.5,1.9,1.5,1.9c0.9,0,1.5-0.7,1.5-1.9     C955.5,737,955,736.3,954,736.3z M991,736.1c-0.9,0-1.5,0.7-1.5,1.9c0,1.2,0.6,2,1.5,2c0.9,0,1.5-0.7,1.5-1.9     C992.5,736.9,991.9,736.1,991,736.1z M946.5,734.5h-1.4v5.5h1.4c1.3,0.1,2.3-0.9,2.4-2.2c0-0.2,0-0.3,0-0.5     c0.2-1.3-0.7-2.5-2-2.7C946.8,734.5,946.6,734.5,946.5,734.5z M928.5,733.4c0.1,1.6-0.4,3.1-1.4,4.3c-1,1.2-2.5,1.9-4.2,1.9     c-0.1-1.5,0.4-3,1.5-4.1C925.5,734.3,926.9,733.6,928.5,733.4z M1027.5,736.2c-0.8,0-1.5,0.6-1.5,1.4v0h2.9     c0.1-0.7-0.5-1.4-1.3-1.4C1027.6,736.2,1027.6,736.2,1027.5,736.2z"></path>
		</g>
	</g>
</g>
</svg>